<?xml version="1.0" encoding="utf-8"?>
<!-- Generator: Adobe Illustrator 24.2.1, SVG Export Plug-In . SVG Version: 6.00 Build 0)  -->
<svg version="1.1" id="Camada_1" xmlns="http://www.w3.org/2000/svg" xmlns:xlink="http://www.w3.org/1999/xlink" x="0px" y="0px"
	 viewBox="0 0 553.5 450" style="enable-background:new 0 0 553.5 450;" xml:space="preserve">
<style type="text/css">
	.st0{fill:#FFFFFF;stroke:#EDEDED;stroke-miterlimit:10;}
	.st1{fill:url(#SVGID_1_);}
	.st2{fill:#FFFFFF;}
	.st3{fill:url(#SVGID_2_);}
	.st4{fill:#040000;stroke:#EDEDED;stroke-miterlimit:10;}
	.st5{fill:#F00044;}
	.st6{fill:#08FFF9;}
	.st7{fill:#EDEDED;stroke:#EDEDED;stroke-miterlimit:10;}
	.st8{fill:#EDEDED;}
	.st9{fill:#B5B5B5;}
	.st10{fill:#242939;}
	.st11{fill:#AAB0B7;}
</style>
<g>
	<g>
		<path class="st0" d="M416.5,124.1H135.3c-5,0-9.1-4.1-9.1-9.1V36.3c0-5,4.1-9.1,9.1-9.1h281.4c5,0,9.1,4.1,9.1,9.1V115
			C425.8,120,421.7,124.1,416.5,124.1z"/>
		<g>
			
				<radialGradient id="SVGID_1_" cx="-733.1235" cy="1498.3561" r="88.3052" fx="-817.5531" fy="1514.8444" gradientTransform="matrix(0.6162 -0.7876 0.5952 0.4657 -263.664 -1199.2808)" gradientUnits="userSpaceOnUse">
				<stop  offset="0.2307" style="stop-color:#0E8EFF"/>
				<stop  offset="0.5188" style="stop-color:#8044FF"/>
				<stop  offset="0.6766" style="stop-color:#F54E8E"/>
			</radialGradient>
			<circle class="st1" cx="176.4" cy="75.9" r="36.4"/>
			<g>
				<path class="st2" d="M165.3,97.3c-0.5,0-1.3-0.2-1.6-0.5c-0.9-0.5-1.4-1.6-1.4-2.7v-3.4c-4.3-3.9-6.6-9.3-6.6-15.2
					c0-5.7,2.1-10.9,6.1-14.6c3.9-3.8,9.3-5.9,15-5.9c5.7,0,11.1,2,15,5.9c3.9,3.8,6.1,8.9,6.1,14.6c0,5.7-2.1,10.9-6.1,14.6
					c-3.9,3.8-9.3,5.9-15,5.9c-2,0-4.1-0.4-6.1-0.7l-3.9,1.8C166.2,97.3,165.7,97.3,165.3,97.3z M176.4,58.4
					c-10.2,0-17.9,7.3-17.9,17.1c0,5,2,9.5,5.5,12.7c0.7,0.5,1.1,1.4,1.1,2.3l0,0V94l3.8-1.6c0.7-0.4,1.4-0.4,2.1-0.2
					c1.6,0.4,3.4,0.7,5.2,0.7c10.2,0,17.9-7.3,17.9-17.1C194.3,65.9,186.6,58.4,176.4,58.4z M166,82.3l6.1-4.8
					c0.4-0.4,1.1-0.4,1.4,0l4.5,3.6c1.4,1.1,3.4,0.7,4.3-0.7l5.7-9.1c0.5-0.9-0.5-1.8-1.3-1.3l-6.1,4.6c-0.4,0.4-1.1,0.4-1.4,0
					l-4.5-3.4c-1.4-1.1-3.4-0.7-4.3,0.7l-5.7,8.9C164.3,82,165.3,83.1,166,82.3z"/>
			</g>
		</g>
	</g>
</g>
<g>
	<g>
		<path class="st0" d="M481.4,296.3h-411c-7.3,0-13.3-6-13.3-13.3V167.8c0-7.3,6-13.3,13.3-13.3h411.3c7.3,0,13.3,6,13.3,13.3V283
			C495,290.3,489,296.3,481.4,296.3z"/>
		<g>
			
				<radialGradient id="SVGID_2_" cx="-856.7206" cy="1614.5248" r="128.913" fx="-979.9753" fy="1638.5955" gradientTransform="matrix(0.6162 -0.7876 0.5952 0.4657 -263.664 -1199.2808)" gradientUnits="userSpaceOnUse">
				<stop  offset="0.2624" style="stop-color:#F9ED32"/>
				<stop  offset="0.5922" style="stop-color:#EE2A7B"/>
				<stop  offset="0.8221" style="stop-color:#002AFF"/>
			</radialGradient>
			<circle class="st3" cx="169.4" cy="227.4" r="53.3"/>
			<g>
				<path class="st2" d="M169.9,258.7c-0.3,0-0.5,0-0.5,0c-4.7,0-9.4,0-13.6-0.5c-3.9-0.3-7.6-1.6-10.4-3.9
					c-2.9-2.4-4.7-5.2-5.7-9.1c-0.8-3.4-0.8-6.5-1-9.7c0-2.4,0-5,0-7.6s0-5.2,0-7.6c0-3.1,0-6.5,1-9.7c1-3.7,2.9-6.8,5.7-9.1
					c2.9-2.4,6.5-3.7,10.4-3.9c4.4-0.3,8.9-0.5,13.6-0.5c4.7,0,9.4,0,13.6,0.5c3.9,0.3,7.6,1.6,10.4,3.9c2.9,2.4,4.7,5.2,5.7,9.1
					c0.8,3.4,0.8,6.5,1,9.7c0,2.4,0,5,0,7.6l0,0c0,2.6,0,5.2,0,7.6c0,3.1,0,6.5-1,9.7c-1,3.7-2.9,6.8-5.7,9.1
					c-2.9,2.4-6.5,3.7-10.4,3.9C178.8,258.4,174.6,258.7,169.9,258.7z M169.4,253.7c4.7,0,9.1,0,13.3-0.3c2.9-0.3,5.7-1,7.6-2.9
					c1.8-1.6,3.4-3.9,4.2-6.5c0.8-2.9,0.8-5.7,0.8-8.6c0-2.4,0-5,0-7.6s0-5.2,0-7.6c0-2.9,0-5.7-0.8-8.6c-0.8-2.9-2.1-5-4.2-6.5
					c-2.1-1.8-4.7-2.6-7.6-2.9c-4.2-0.3-8.6-0.5-13.3-0.3c-4.7,0-9.1,0-13.3,0.3c-2.9,0.3-5.7,1-7.6,2.9c-1.8,1.6-3.4,3.9-4.2,6.5
					c-0.8,2.9-0.8,5.7-0.8,8.6c0,2.4,0,5,0,7.6s0,5.2,0,7.6c0,2.9,0,5.7,0.8,8.6c0.8,2.9,2.1,5,4.2,6.5c2.1,1.8,4.7,2.6,7.6,2.9
					C160.3,253.7,164.7,253.7,169.4,253.7z M169.4,243c-8.4,0-15.1-6.8-15.1-15.1s6.8-15.1,15.1-15.1c8.4,0,15.1,6.8,15.1,15.1
					S177.5,243,169.4,243z M169.4,217.7c-5.7,0-10.2,4.7-10.2,10.2c0,5.7,4.7,10.2,10.2,10.2s10.2-4.7,10.2-10.2
					C179.6,222.1,174.9,217.7,169.4,217.7z M185.8,208c-2.1,0-3.7,1.6-3.7,3.7s1.6,3.7,3.7,3.7c2.1,0,3.7-1.6,3.7-3.7
					C189.5,209.6,187.9,208,185.8,208z"/>
			</g>
		</g>
	</g>
</g>
<g>
	<g>
		<g>
			<path class="st0" d="M416.5,423.9H135.3c-5,0-9.1-4.1-9.1-9.1V336c0-5,4.1-9.1,9.1-9.1h281.4c5,0,9.1,4.1,9.1,9.1v78.8
				C425.8,419.7,421.7,423.9,416.5,423.9z"/>
			<circle class="st4" cx="176.8" cy="375.8" r="36.6"/>
		</g>
		<g>
			<g>
				<path class="st5" d="M170.2,377.1c-3.6,0-6.6,2.9-6.4,6.6c0,2.3,1.3,4.3,3.2,5.5c-0.7-0.9-1.1-2.1-1.1-3.4
					c0-3.6,2.9-6.6,6.4-6.6c0.7,0,1.4,0.2,2,0.4v-7.3c-0.7,0-1.4-0.2-2-0.2l0,0v5.4C171.6,377.1,170.9,377.1,170.2,377.1z"/>
				<path class="st5" d="M186.1,355.3L186.1,355.3h-2c0.5,2.7,2,5,4.1,6.6C186.8,360.1,186.1,357.8,186.1,355.3z"/>
				<path class="st5" d="M197,366.3c-0.7,0-1.4,0-2-0.2v5.2c-2.5,0-4.8-0.5-7-1.4c-1.4-0.5-2.9-1.4-4.1-2.3v16.1
					c0,3.6-1.4,7-4.1,9.5c-2.1,2-4.8,3.4-7.7,3.8c-0.7,0-1.3,0.2-2,0.2c-3,0-6.1-1.1-8.4-2.9c0.4,0.4,0.5,0.7,0.9,0.9
					c2.5,2.5,6.1,3.9,9.6,3.9c0.7,0,1.4,0,2-0.2c2.9-0.4,5.5-1.8,7.7-3.8c2.5-2.5,4.1-5.9,4.1-9.5l-0.2-16.1
					c1.3,0.9,2.5,1.8,4.1,2.3c2.3,0.9,4.6,1.4,7,1.4"/>
			</g>
			<path class="st6" d="M162.7,376c2.5-2.5,6.1-3.9,9.6-3.9v-2c-0.7-0.2-1.3-0.2-2-0.2c-3.6,0-7.1,1.4-9.8,3.9
				c-2.5,2.5-4.1,6.1-4.1,9.6c0,3.6,1.4,7,4.1,9.6c0.4,0.4,0.9,0.9,1.3,1.1c-2-2.5-3.2-5.4-3.2-8.6
				C158.7,381.9,160.2,378.5,162.7,376z"/>
			<path class="st6" d="M195,366.2v-2l0,0c-2.5,0-4.8-0.9-6.6-2.1C190,364,192.3,365.6,195,366.2z"/>
			<path class="st6" d="M172.1,392.1c0.9,0,1.6,0,2.5-0.4c2.7-0.9,4.5-3.2,4.5-6.1v-10.7v-19.7h5.2c-0.2-0.7-0.2-1.4-0.2-2h-7.1
				v19.5v10.7c0,2.9-2,5.4-4.5,6.1c-0.7,0.2-1.6,0.4-2.5,0.4c-1.1,0-2.1-0.4-3-0.9C168,390.6,169.8,391.9,172.1,392.1L172.1,392.1z"
				/>
			<path class="st2" d="M172.3,396.9c2.9-0.4,5.5-1.8,7.7-3.8c2.5-2.5,4.1-5.9,4.1-9.5v-16.1c1.3,0.9,2.5,1.8,4.1,2.3
				c2.3,0.9,4.6,1.4,7,1.4v-5.2c-2.7-0.5-5-2-6.6-4.1c-2.1-1.6-3.6-3.9-4.1-6.6h-5.2v19.5v10.7c0,2.9-2,5.4-4.5,6.1
				c-0.7,0.2-1.6,0.4-2.5,0.4c-2.1-0.2-4.1-1.3-5.2-3c-2-1.1-3.2-3.2-3.2-5.5c0-3.6,2.9-6.6,6.4-6.6c0.7,0,1.4,0.2,2,0.4v-5.4
				c-3.6,0-7,1.4-9.6,3.9c-2.5,2.5-4.1,6.1-4.1,9.6c0,3.2,1.1,6.3,3.2,8.6c2.5,1.8,5.4,2.9,8.4,2.9
				C170.9,397.1,171.6,396.9,172.3,396.9L172.3,396.9z"/>
		</g>
	</g>
</g>
<line class="st7" x1="95.7" y1="154.5" x2="95.7" y2="296.3"/>
<path class="st8" d="M56.9,167.8V283c0,7.3,6,13.3,13.3,13.3h25.3V154.5H70.2C62.9,154.5,56.9,160.5,56.9,167.8z"/>
<g>
	<circle class="st9" cx="76.2" cy="209.2" r="5"/>
	<circle class="st9" cx="76.2" cy="226.2" r="5"/>
	<circle class="st9" cx="76.2" cy="242.9" r="5"/>
</g>
<g>
	<g>
		<path class="st10" d="M93.3,273l-6.8-6.8c-0.3-0.3-0.8-0.4-1.2-0.2c-0.4,0.2-0.7,0.6-0.7,1.1v3.4H70.9v-13.7h3.4
			c0.5,0,0.9-0.3,1.1-0.7s0.1-0.9-0.2-1.2l-6.8-6.8c-0.4-0.4-1.2-0.4-1.6,0l-6.8,6.8c-0.3,0.3-0.4,0.8-0.2,1.2
			c0.2,0.4,0.6,0.7,1.1,0.7H64v13.7H50.4V267c0-0.5-0.3-0.9-0.7-1.1c-0.4-0.2-0.9-0.1-1.2,0.2l-6.8,6.8c-0.4,0.4-0.4,1.2,0,1.6
			l6.8,6.8c0.3,0.3,0.8,0.4,1.2,0.2c0.4-0.2,0.7-0.6,0.7-1v-3.4H64v13.7h-3.4c-0.5,0-0.9,0.3-1.1,0.7s-0.1,0.9,0.2,1.2l6.8,6.8
			c0.2,0.2,0.5,0.3,0.8,0.3c0.3,0,0.6-0.1,0.8-0.3l6.8-6.8c0.3-0.3,0.4-0.8,0.2-1.2c-0.2-0.4-0.6-0.7-1.1-0.7h-3.4v-13.7h13.7v3.4
			c0,0.5,0.3,0.9,0.7,1.1c0.4,0.2,0.9,0.1,1.2-0.2l6.8-6.8C93.7,274.2,93.7,273.4,93.3,273z"/>
	</g>
</g>
<g>
	<g>
		<path class="st10" d="M233.3,54.7h2.9l5.1,12.4h0.2l5.1-12.4h2.9v16h-2.3V59.1h-0.1l-4.7,11.6h-1.9l-4.7-11.6h-0.1v11.6h-2.3V54.7
			z"/>
		<path class="st10" d="M258.1,71c-1.2,0-2.2-0.3-3.1-0.8s-1.5-1.2-2-2.1c-0.5-0.9-0.7-2-0.7-3.3c0-1.2,0.2-2.3,0.7-3.3
			s1.1-1.7,1.9-2.2c0.8-0.5,1.8-0.8,2.9-0.8c0.7,0,1.3,0.1,2,0.3c0.6,0.2,1.2,0.6,1.7,1.1c0.5,0.5,0.9,1.1,1.2,1.9
			c0.3,0.8,0.4,1.7,0.4,2.8v0.8h-9.5v-1.8h7.3c0-0.6-0.1-1.2-0.4-1.6s-0.6-0.9-1.1-1.1c-0.5-0.3-1-0.4-1.6-0.4
			c-0.7,0-1.2,0.2-1.7,0.5c-0.5,0.3-0.9,0.7-1.1,1.3c-0.3,0.5-0.4,1.1-0.4,1.7v1.4c0,0.8,0.1,1.5,0.4,2c0.3,0.6,0.7,1,1.2,1.3
			c0.5,0.3,1.1,0.4,1.8,0.4c0.4,0,0.8-0.1,1.2-0.2c0.4-0.1,0.7-0.3,0.9-0.6c0.3-0.3,0.5-0.6,0.6-0.9l2.2,0.4
			c-0.2,0.7-0.5,1.2-0.9,1.7c-0.5,0.5-1,0.9-1.7,1.1C259.7,70.8,258.9,71,258.1,71z"/>
		<path class="st10" d="M274.8,61.6l-2.1,0.4c-0.1-0.3-0.2-0.5-0.4-0.8c-0.2-0.2-0.4-0.4-0.8-0.6c-0.3-0.2-0.7-0.2-1.2-0.2
			c-0.7,0-1.2,0.1-1.7,0.4c-0.4,0.3-0.7,0.7-0.7,1.1c0,0.4,0.1,0.7,0.4,1c0.3,0.2,0.8,0.4,1.4,0.6l1.9,0.4c1.1,0.3,1.9,0.6,2.5,1.2
			c0.5,0.5,0.8,1.2,0.8,2.1c0,0.7-0.2,1.4-0.6,1.9c-0.4,0.6-1,1-1.7,1.3c-0.7,0.3-1.6,0.5-2.6,0.5c-1.3,0-2.4-0.3-3.3-0.9
			c-0.8-0.6-1.4-1.4-1.6-2.5l2.3-0.3c0.1,0.6,0.4,1,0.9,1.3c0.4,0.3,1,0.4,1.7,0.4c0.8,0,1.4-0.2,1.8-0.5c0.5-0.3,0.7-0.7,0.7-1.2
			c0-0.4-0.1-0.7-0.4-0.9c-0.3-0.3-0.7-0.4-1.3-0.6l-2-0.4c-1.1-0.3-1.9-0.7-2.5-1.2c-0.5-0.6-0.8-1.3-0.8-2.1
			c0-0.7,0.2-1.3,0.6-1.9c0.4-0.5,0.9-0.9,1.6-1.2c0.7-0.3,1.5-0.4,2.4-0.4c1.3,0,2.3,0.3,3.1,0.8C274.1,60,274.6,60.7,274.8,61.6z"
			/>
		<path class="st10" d="M286.6,61.6l-2.1,0.4c-0.1-0.3-0.2-0.5-0.4-0.8c-0.2-0.2-0.4-0.4-0.8-0.6s-0.7-0.2-1.2-0.2
			c-0.7,0-1.2,0.1-1.7,0.4c-0.4,0.3-0.7,0.7-0.7,1.1c0,0.4,0.1,0.7,0.4,1c0.3,0.2,0.8,0.4,1.4,0.6l1.9,0.4c1.1,0.3,1.9,0.6,2.5,1.2
			s0.8,1.2,0.8,2.1c0,0.7-0.2,1.4-0.6,1.9c-0.4,0.6-1,1-1.7,1.3s-1.6,0.5-2.6,0.5c-1.3,0-2.4-0.3-3.3-0.9c-0.8-0.6-1.4-1.4-1.6-2.5
			l2.3-0.3c0.1,0.6,0.4,1,0.9,1.3c0.4,0.3,1,0.4,1.7,0.4c0.8,0,1.4-0.2,1.8-0.5s0.7-0.7,0.7-1.2c0-0.4-0.1-0.7-0.4-0.9
			c-0.3-0.3-0.7-0.4-1.3-0.6l-2-0.4c-1.1-0.3-1.9-0.7-2.5-1.2c-0.5-0.6-0.8-1.3-0.8-2.1c0-0.7,0.2-1.3,0.6-1.9s0.9-0.9,1.6-1.2
			c0.7-0.3,1.5-0.4,2.4-0.4c1.3,0,2.3,0.3,3.1,0.8C285.9,60,286.3,60.7,286.6,61.6z"/>
		<path class="st10" d="M294.6,71c-1.2,0-2.2-0.3-3.1-0.8s-1.5-1.2-2-2.1c-0.5-0.9-0.7-2-0.7-3.3c0-1.2,0.2-2.3,0.7-3.3
			s1.1-1.7,1.9-2.2c0.8-0.5,1.8-0.8,2.9-0.8c0.7,0,1.3,0.1,2,0.3c0.6,0.2,1.2,0.6,1.7,1.1c0.5,0.5,0.9,1.1,1.2,1.9
			c0.3,0.8,0.4,1.7,0.4,2.8v0.8h-9.5v-1.8h7.3c0-0.6-0.1-1.2-0.4-1.6s-0.6-0.9-1.1-1.1c-0.5-0.3-1-0.4-1.6-0.4
			c-0.7,0-1.2,0.2-1.7,0.5s-0.9,0.7-1.1,1.3c-0.3,0.5-0.4,1.1-0.4,1.7v1.4c0,0.8,0.1,1.5,0.4,2s0.7,1,1.2,1.3
			c0.5,0.3,1.1,0.4,1.8,0.4c0.4,0,0.8-0.1,1.2-0.2c0.4-0.1,0.7-0.3,0.9-0.6c0.3-0.3,0.5-0.6,0.6-0.9l2.2,0.4
			c-0.2,0.7-0.5,1.2-0.9,1.7c-0.5,0.5-1,0.9-1.7,1.1S295.4,71,294.6,71z"/>
		<path class="st10" d="M304.6,63.6v7.1h-2.3v-12h2.2v2h0.1c0.3-0.6,0.7-1.1,1.3-1.5c0.6-0.4,1.3-0.6,2.2-0.6c0.8,0,1.5,0.2,2.1,0.5
			c0.6,0.3,1.1,0.8,1.4,1.5s0.5,1.5,0.5,2.5v7.6H310v-7.4c0-0.9-0.2-1.6-0.7-2s-1.1-0.7-1.9-0.7c-0.5,0-1,0.1-1.4,0.4s-0.8,0.6-1,1
			C304.8,62.4,304.6,63,304.6,63.6z"/>
		<path class="st10" d="M320.5,75.4c-1,0-1.8-0.1-2.5-0.4s-1.2-0.6-1.7-1c-0.4-0.4-0.8-0.9-1-1.3l2-0.8c0.1,0.2,0.3,0.5,0.6,0.7
			c0.2,0.3,0.6,0.5,1,0.7c0.4,0.2,0.9,0.3,1.6,0.3c0.9,0,1.6-0.2,2.2-0.6c0.6-0.4,0.9-1.1,0.9-2v-2.4h-0.1c-0.1,0.3-0.3,0.5-0.6,0.9
			s-0.6,0.6-1.1,0.8c-0.5,0.2-1.1,0.3-1.8,0.3c-0.9,0-1.8-0.2-2.6-0.7s-1.4-1.1-1.8-2c-0.4-0.9-0.7-1.9-0.7-3.2
			c0-1.3,0.2-2.4,0.7-3.3c0.4-0.9,1-1.6,1.8-2.1c0.8-0.5,1.6-0.7,2.6-0.7c0.7,0,1.3,0.1,1.8,0.4c0.5,0.2,0.8,0.5,1.1,0.9
			s0.5,0.6,0.6,0.9h0.2v-1.9h2.3V71c0,1-0.2,1.9-0.7,2.5c-0.5,0.7-1.1,1.1-1.9,1.5C322.4,75.3,321.5,75.4,320.5,75.4z M320.5,68.6
			c0.7,0,1.2-0.2,1.7-0.5c0.5-0.3,0.8-0.8,1.1-1.4c0.2-0.6,0.4-1.3,0.4-2.1c0-0.8-0.1-1.5-0.4-2.1c-0.2-0.6-0.6-1.1-1.1-1.4
			c-0.5-0.3-1-0.5-1.7-0.5c-0.7,0-1.3,0.2-1.8,0.5c-0.5,0.4-0.8,0.9-1.1,1.5c-0.2,0.6-0.4,1.3-0.4,2.1c0,0.8,0.1,1.5,0.4,2.1
			s0.6,1.1,1.1,1.4C319.2,68.4,319.8,68.6,320.5,68.6z"/>
		<path class="st10" d="M334.2,71c-1.2,0-2.2-0.3-3.1-0.8s-1.5-1.2-2-2.1c-0.5-0.9-0.7-2-0.7-3.3c0-1.2,0.2-2.3,0.7-3.3
			s1.1-1.7,1.9-2.2c0.8-0.5,1.8-0.8,2.9-0.8c0.7,0,1.3,0.1,2,0.3c0.6,0.2,1.2,0.6,1.7,1.1c0.5,0.5,0.9,1.1,1.2,1.9
			c0.3,0.8,0.4,1.7,0.4,2.8v0.8h-9.5v-1.8h7.3c0-0.6-0.1-1.2-0.4-1.6s-0.6-0.9-1.1-1.1c-0.5-0.3-1-0.4-1.6-0.4
			c-0.7,0-1.2,0.2-1.7,0.5s-0.9,0.7-1.1,1.3c-0.3,0.5-0.4,1.1-0.4,1.7v1.4c0,0.8,0.1,1.5,0.4,2s0.7,1,1.2,1.3
			c0.5,0.3,1.1,0.4,1.8,0.4c0.4,0,0.8-0.1,1.2-0.2c0.4-0.1,0.7-0.3,0.9-0.6c0.3-0.3,0.5-0.6,0.6-0.9l2.2,0.4
			c-0.2,0.7-0.5,1.2-0.9,1.7c-0.5,0.5-1,0.9-1.7,1.1S335.1,71,334.2,71z"/>
		<path class="st10" d="M341.9,70.7v-12h2.3v1.9h0.1c0.2-0.6,0.6-1.2,1.2-1.5c0.6-0.4,1.2-0.6,1.9-0.6c0.1,0,0.3,0,0.5,0
			c0.2,0,0.4,0,0.5,0v2.2c-0.1,0-0.3-0.1-0.5-0.1c-0.2,0-0.5-0.1-0.7-0.1c-0.6,0-1,0.1-1.5,0.3c-0.4,0.2-0.8,0.6-1,1
			c-0.3,0.4-0.4,0.9-0.4,1.4v7.3H341.9z"/>
	</g>
	<g>
		<path class="st11" d="M233.9,92.8v-9.3h1.4v1.4h0.1c0.2-0.5,0.5-0.9,0.9-1.2c0.4-0.3,0.9-0.4,1.6-0.4c0.6,0,1.1,0.1,1.5,0.4
			c0.4,0.3,0.7,0.7,1,1.2h0.1c0.2-0.5,0.6-0.9,1.1-1.1c0.5-0.3,1-0.4,1.7-0.4c0.8,0,1.5,0.3,2,0.8s0.8,1.3,0.8,2.4v6.2h-1.4v-6.2
			c0-0.7-0.2-1.2-0.6-1.5s-0.8-0.4-1.3-0.4c-0.7,0-1.2,0.2-1.5,0.6c-0.4,0.4-0.5,0.9-0.5,1.5v6h-1.4v-6.4c0-0.5-0.2-1-0.5-1.3
			c-0.3-0.3-0.8-0.5-1.3-0.5c-0.4,0-0.7,0.1-1,0.3c-0.3,0.2-0.6,0.5-0.8,0.8c-0.2,0.3-0.3,0.8-0.3,1.2v5.8H233.9z"/>
		<path class="st11" d="M252.6,92.9c-0.9,0-1.7-0.2-2.3-0.6s-1.1-1-1.5-1.7c-0.3-0.7-0.5-1.5-0.5-2.5s0.2-1.8,0.5-2.5
			s0.8-1.3,1.5-1.7c0.6-0.4,1.4-0.6,2.2-0.6c0.5,0,1,0.1,1.4,0.2c0.5,0.2,0.9,0.4,1.3,0.8c0.4,0.4,0.7,0.8,0.9,1.4
			c0.2,0.6,0.3,1.3,0.3,2.2v0.6h-7.1v-1.2h5.7c0-0.5-0.1-1-0.3-1.4c-0.2-0.4-0.5-0.7-0.9-1c-0.4-0.2-0.8-0.4-1.3-0.4
			c-0.6,0-1.1,0.1-1.5,0.4s-0.7,0.6-1,1.1s-0.3,0.9-0.3,1.4v0.8c0,0.7,0.1,1.3,0.4,1.8c0.2,0.5,0.6,0.9,1,1.1
			c0.4,0.3,0.9,0.4,1.5,0.4c0.4,0,0.7-0.1,1-0.2s0.6-0.3,0.8-0.5c0.2-0.2,0.4-0.5,0.5-0.8l1.4,0.4c-0.1,0.5-0.4,0.9-0.7,1.2
			c-0.3,0.4-0.8,0.6-1.3,0.8C253.8,92.8,253.2,92.9,252.6,92.9z"/>
		<path class="st11" d="M265.1,85.6l-1.3,0.4c-0.1-0.2-0.2-0.4-0.4-0.6c-0.2-0.2-0.4-0.4-0.6-0.5s-0.6-0.2-1-0.2
			c-0.6,0-1,0.1-1.4,0.4c-0.4,0.3-0.6,0.6-0.6,1c0,0.4,0.1,0.6,0.4,0.8c0.3,0.2,0.7,0.4,1.2,0.5l1.4,0.3c0.8,0.2,1.4,0.5,1.9,0.9
			c0.4,0.4,0.6,0.9,0.6,1.6c0,0.5-0.2,1-0.5,1.4c-0.3,0.4-0.7,0.7-1.3,1c-0.5,0.2-1.2,0.4-1.9,0.4c-0.9,0-1.7-0.2-2.3-0.6
			c-0.6-0.4-1-1-1.2-1.8l1.4-0.3c0.1,0.5,0.4,0.9,0.7,1.1c0.4,0.3,0.8,0.4,1.4,0.4c0.7,0,1.2-0.1,1.6-0.4c0.4-0.3,0.6-0.6,0.6-1
			c0-0.3-0.1-0.6-0.3-0.8c-0.2-0.2-0.6-0.4-1-0.5l-1.5-0.4c-0.8-0.2-1.5-0.5-1.9-0.9s-0.6-1-0.6-1.6c0-0.5,0.1-1,0.4-1.4
			s0.7-0.7,1.2-0.9s1.1-0.3,1.7-0.3c0.9,0,1.6,0.2,2.2,0.6C264.5,84.4,264.9,84.9,265.1,85.6z"/>
		<path class="st11" d="M274,85.6l-1.3,0.4c-0.1-0.2-0.2-0.4-0.4-0.6c-0.2-0.2-0.4-0.4-0.6-0.5s-0.6-0.2-1-0.2c-0.6,0-1,0.1-1.4,0.4
			c-0.4,0.3-0.6,0.6-0.6,1c0,0.4,0.1,0.6,0.4,0.8c0.3,0.2,0.7,0.4,1.2,0.5l1.4,0.3c0.8,0.2,1.4,0.5,1.9,0.9c0.4,0.4,0.6,0.9,0.6,1.6
			c0,0.5-0.2,1-0.5,1.4c-0.3,0.4-0.7,0.7-1.3,1c-0.5,0.2-1.2,0.4-1.9,0.4c-0.9,0-1.7-0.2-2.3-0.6c-0.6-0.4-1-1-1.2-1.8l1.4-0.3
			c0.1,0.5,0.4,0.9,0.7,1.1c0.4,0.3,0.8,0.4,1.4,0.4c0.7,0,1.2-0.1,1.6-0.4c0.4-0.3,0.6-0.6,0.6-1c0-0.3-0.1-0.6-0.3-0.8
			c-0.2-0.2-0.6-0.4-1-0.5l-1.5-0.4c-0.8-0.2-1.5-0.5-1.9-0.9s-0.6-1-0.6-1.6c0-0.5,0.1-1,0.4-1.4s0.7-0.7,1.2-0.9s1.1-0.3,1.7-0.3
			c0.9,0,1.6,0.2,2.2,0.6C273.4,84.4,273.8,84.9,274,85.6z"/>
		<path class="st11" d="M280.2,92.9c-0.9,0-1.7-0.2-2.3-0.6s-1.1-1-1.5-1.7c-0.3-0.7-0.5-1.5-0.5-2.5s0.2-1.8,0.5-2.5
			s0.8-1.3,1.5-1.7c0.6-0.4,1.4-0.6,2.2-0.6c0.5,0,1,0.1,1.4,0.2c0.5,0.2,0.9,0.4,1.3,0.8c0.4,0.4,0.7,0.8,0.9,1.4
			c0.2,0.6,0.3,1.3,0.3,2.2v0.6h-7.1v-1.2h5.7c0-0.5-0.1-1-0.3-1.4c-0.2-0.4-0.5-0.7-0.9-1c-0.4-0.2-0.8-0.4-1.3-0.4
			c-0.6,0-1.1,0.1-1.5,0.4s-0.7,0.6-1,1.1c-0.2,0.4-0.3,0.9-0.3,1.4v0.8c0,0.7,0.1,1.3,0.4,1.8c0.2,0.5,0.6,0.9,1,1.1
			c0.4,0.3,0.9,0.4,1.5,0.4c0.4,0,0.7-0.1,1-0.2c0.3-0.1,0.6-0.3,0.8-0.5s0.4-0.5,0.5-0.8l1.4,0.4c-0.1,0.5-0.4,0.9-0.7,1.2
			c-0.3,0.4-0.8,0.6-1.3,0.8C281.4,92.8,280.9,92.9,280.2,92.9z"/>
		<path class="st11" d="M287.7,87.2v5.6h-1.4v-9.3h1.4v1.4h0.1c0.2-0.5,0.5-0.9,1-1.1c0.4-0.3,1-0.4,1.7-0.4c0.6,0,1.2,0.1,1.6,0.4
			c0.5,0.3,0.8,0.6,1.1,1.2c0.3,0.5,0.4,1.2,0.4,2v5.9h-1.4V87c0-0.7-0.2-1.3-0.6-1.7c-0.4-0.4-0.9-0.6-1.6-0.6
			c-0.5,0-0.9,0.1-1.2,0.3s-0.6,0.5-0.8,0.9C287.8,86.2,287.7,86.6,287.7,87.2z"/>
		<path class="st11" d="M299.9,96.4c-0.7,0-1.3-0.1-1.8-0.3c-0.5-0.2-0.9-0.4-1.2-0.7s-0.6-0.6-0.8-0.9l1.1-0.8
			c0.1,0.2,0.3,0.4,0.5,0.6s0.5,0.4,0.8,0.6c0.3,0.2,0.8,0.2,1.4,0.2c0.7,0,1.4-0.2,1.9-0.5c0.5-0.4,0.7-0.9,0.7-1.7V91h-0.1
			c-0.1,0.2-0.3,0.4-0.4,0.6s-0.5,0.5-0.8,0.7c-0.4,0.2-0.8,0.3-1.4,0.3c-0.7,0-1.4-0.2-2-0.5c-0.6-0.4-1.1-0.9-1.4-1.5
			c-0.3-0.7-0.5-1.5-0.5-2.5c0-0.9,0.2-1.8,0.5-2.5c0.3-0.7,0.8-1.3,1.4-1.6c0.6-0.4,1.3-0.6,2.1-0.6c0.6,0,1.1,0.1,1.4,0.3
			s0.6,0.4,0.8,0.7c0.2,0.3,0.3,0.5,0.4,0.6h0.1v-1.5h1.4V93c0,0.8-0.2,1.4-0.5,1.9c-0.4,0.5-0.8,0.9-1.4,1.1S300.7,96.4,299.9,96.4
			z M299.9,91.3c0.6,0,1.1-0.1,1.4-0.4c0.4-0.3,0.7-0.6,0.9-1.1c0.2-0.5,0.3-1.1,0.3-1.8c0-0.7-0.1-1.3-0.3-1.8s-0.5-0.9-0.9-1.2
			c-0.4-0.3-0.9-0.4-1.5-0.4c-0.6,0-1.1,0.2-1.5,0.5s-0.7,0.7-0.9,1.2s-0.3,1.1-0.3,1.7c0,0.6,0.1,1.2,0.3,1.7
			c0.2,0.5,0.5,0.9,0.9,1.2C298.8,91.2,299.3,91.3,299.9,91.3z"/>
		<path class="st11" d="M310.4,92.9c-0.9,0-1.7-0.2-2.3-0.6c-0.6-0.4-1.1-1-1.5-1.7c-0.3-0.7-0.5-1.5-0.5-2.5s0.2-1.8,0.5-2.5
			c0.3-0.7,0.8-1.3,1.5-1.7c0.6-0.4,1.4-0.6,2.2-0.6c0.5,0,1,0.1,1.4,0.2c0.5,0.2,0.9,0.4,1.3,0.8c0.4,0.4,0.7,0.8,0.9,1.4
			c0.2,0.6,0.3,1.3,0.3,2.2v0.6h-7.1v-1.2h5.7c0-0.5-0.1-1-0.3-1.4c-0.2-0.4-0.5-0.7-0.9-1c-0.4-0.2-0.8-0.4-1.3-0.4
			c-0.6,0-1.1,0.1-1.5,0.4c-0.4,0.3-0.7,0.6-1,1.1s-0.3,0.9-0.3,1.4v0.8c0,0.7,0.1,1.3,0.4,1.8c0.2,0.5,0.6,0.9,1,1.1
			s0.9,0.4,1.5,0.4c0.4,0,0.7-0.1,1-0.2s0.6-0.3,0.8-0.5c0.2-0.2,0.4-0.5,0.5-0.8l1.4,0.4c-0.1,0.5-0.4,0.9-0.7,1.2
			c-0.3,0.4-0.8,0.6-1.3,0.8C311.6,92.8,311.1,92.9,310.4,92.9z"/>
		<path class="st11" d="M316.5,92.8v-9.3h1.4v1.4h0.1c0.2-0.5,0.5-0.8,0.9-1.1c0.4-0.3,0.9-0.4,1.5-0.4c0.1,0,0.2,0,0.4,0
			s0.3,0,0.4,0v1.4c0,0-0.2,0-0.3-0.1s-0.4,0-0.5,0c-0.5,0-0.9,0.1-1.2,0.3c-0.4,0.2-0.6,0.4-0.8,0.8s-0.3,0.7-0.3,1.1v5.9H316.5z"
			/>
		<path class="st11" d="M322.8,92.8c-0.3,0-0.6-0.1-0.8-0.3c-0.2-0.2-0.3-0.5-0.3-0.8s0.1-0.6,0.3-0.8c0.2-0.2,0.5-0.3,0.8-0.3
			c0.3,0,0.6,0.1,0.8,0.3c0.2,0.2,0.3,0.5,0.3,0.8c0,0.2,0,0.4-0.1,0.5s-0.2,0.3-0.4,0.4S323,92.8,322.8,92.8z"/>
		<path class="st11" d="M327.8,80.4v12.4h-1.4V80.4H327.8z"/>
		<path class="st11" d="M331.2,81.9c-0.3,0-0.5-0.1-0.7-0.3c-0.2-0.2-0.3-0.4-0.3-0.7s0.1-0.5,0.3-0.7c0.2-0.2,0.4-0.3,0.7-0.3
			s0.5,0.1,0.7,0.3c0.2,0.2,0.3,0.4,0.3,0.7s-0.1,0.5-0.3,0.7C331.7,81.8,331.4,81.9,331.2,81.9z M330.4,92.8v-9.3h1.4v9.3H330.4z"
			/>
		<path class="st11" d="M335.9,87.2v5.6h-1.4v-9.3h1.4v1.4h0.1c0.2-0.5,0.5-0.9,1-1.1c0.4-0.3,1-0.4,1.7-0.4c0.6,0,1.2,0.1,1.6,0.4
			c0.5,0.3,0.8,0.6,1.1,1.2c0.3,0.5,0.4,1.2,0.4,2v5.9h-1.4V87c0-0.7-0.2-1.3-0.6-1.7c-0.4-0.4-0.9-0.6-1.6-0.6
			c-0.5,0-0.9,0.1-1.2,0.3s-0.6,0.5-0.8,0.9C336,86.2,335.9,86.6,335.9,87.2z"/>
		<path class="st11" d="M344.4,92.8V80.4h1.4v12.4H344.4z M345.7,89.4l0-1.8h0.3l4.1-4.1h1.8l-4.3,4.4h-0.1L345.7,89.4z M350.3,92.8
			l-3.6-4.6l1-1l4.4,5.6H350.3z"/>
		<path class="st11" d="M356.4,93c-0.6,0-1.1-0.1-1.6-0.3c-0.5-0.2-0.9-0.5-1.1-1c-0.3-0.4-0.4-0.9-0.4-1.5c0-0.5,0.1-1,0.3-1.3
			c0.2-0.3,0.5-0.6,0.8-0.8c0.3-0.2,0.7-0.3,1.2-0.4c0.4-0.1,0.9-0.2,1.3-0.2c0.6-0.1,1-0.1,1.4-0.2c0.4,0,0.6-0.1,0.8-0.2
			c0.2-0.1,0.2-0.3,0.2-0.5v0c0-0.6-0.2-1.1-0.5-1.4s-0.8-0.5-1.5-0.5c-0.7,0-1.2,0.1-1.6,0.4c-0.4,0.3-0.7,0.6-0.8,1l-1.4-0.5
			c0.2-0.6,0.6-1,1-1.3c0.4-0.3,0.8-0.5,1.3-0.7c0.5-0.1,1-0.2,1.4-0.2c0.3,0,0.6,0,1,0.1c0.4,0.1,0.8,0.2,1.1,0.4
			c0.4,0.2,0.7,0.5,0.9,1c0.2,0.4,0.4,1,0.4,1.8v6.1h-1.4v-1.3h-0.1c-0.1,0.2-0.3,0.4-0.5,0.6s-0.5,0.4-0.9,0.6
			C357.4,92.9,356.9,93,356.4,93z M356.6,91.7c0.6,0,1-0.1,1.4-0.3s0.7-0.5,0.9-0.9s0.3-0.7,0.3-1.1v-1.3c-0.1,0.1-0.2,0.1-0.4,0.2
			c-0.2,0.1-0.4,0.1-0.7,0.2c-0.3,0-0.5,0.1-0.8,0.1c-0.2,0-0.4,0.1-0.6,0.1c-0.4,0-0.7,0.1-1,0.2c-0.3,0.1-0.6,0.3-0.8,0.5
			s-0.3,0.5-0.3,0.9c0,0.5,0.2,0.9,0.6,1.1S356,91.7,356.6,91.7z"/>
		<path class="st11" d="M364.3,92.8c-0.3,0-0.6-0.1-0.8-0.3c-0.2-0.2-0.3-0.5-0.3-0.8s0.1-0.6,0.3-0.8c0.2-0.2,0.5-0.3,0.8-0.3
			c0.3,0,0.6,0.1,0.8,0.3c0.2,0.2,0.3,0.5,0.3,0.8c0,0.2,0,0.4-0.1,0.5s-0.2,0.3-0.4,0.4S364.5,92.8,364.3,92.8z"/>
		<path class="st11" d="M370.7,93c-0.6,0-1.1-0.1-1.6-0.3c-0.5-0.2-0.9-0.5-1.1-1c-0.3-0.4-0.4-0.9-0.4-1.5c0-0.5,0.1-1,0.3-1.3
			c0.2-0.3,0.5-0.6,0.8-0.8c0.3-0.2,0.7-0.3,1.2-0.4c0.4-0.1,0.9-0.2,1.3-0.2c0.6-0.1,1-0.1,1.4-0.2c0.4,0,0.6-0.1,0.8-0.2
			c0.2-0.1,0.2-0.3,0.2-0.5v0c0-0.6-0.2-1.1-0.5-1.4s-0.8-0.5-1.5-0.5c-0.7,0-1.2,0.1-1.6,0.4c-0.4,0.3-0.7,0.6-0.8,1l-1.4-0.5
			c0.2-0.6,0.6-1,1-1.3c0.4-0.3,0.8-0.5,1.3-0.7c0.5-0.1,1-0.2,1.4-0.2c0.3,0,0.6,0,1,0.1c0.4,0.1,0.8,0.2,1.1,0.4
			c0.4,0.2,0.7,0.5,0.9,1c0.2,0.4,0.4,1,0.4,1.8v6.1h-1.4v-1.3h-0.1c-0.1,0.2-0.3,0.4-0.5,0.6s-0.5,0.4-0.9,0.6
			C371.7,92.9,371.2,93,370.7,93z M370.9,91.7c0.6,0,1-0.1,1.4-0.3s0.7-0.5,0.9-0.9s0.3-0.7,0.3-1.1v-1.3c-0.1,0.1-0.2,0.1-0.4,0.2
			c-0.2,0.1-0.4,0.1-0.7,0.2c-0.3,0-0.5,0.1-0.8,0.1c-0.2,0-0.4,0.1-0.6,0.1c-0.4,0-0.7,0.1-1,0.2c-0.3,0.1-0.6,0.3-0.8,0.5
			s-0.3,0.5-0.3,0.9c0,0.5,0.2,0.9,0.6,1.1S370.3,91.7,370.9,91.7z"/>
		<path class="st11" d="M378.3,81.9c-0.3,0-0.5-0.1-0.7-0.3c-0.2-0.2-0.3-0.4-0.3-0.7s0.1-0.5,0.3-0.7c0.2-0.2,0.4-0.3,0.7-0.3
			s0.5,0.1,0.7,0.3c0.2,0.2,0.3,0.4,0.3,0.7s-0.1,0.5-0.3,0.7C378.8,81.8,378.5,81.9,378.3,81.9z M377.5,92.8v-9.3h1.4v9.3H377.5z"
			/>
	</g>
</g>
<g>
	<g>
		<path class="st10" d="M232.2,357.5v-2.1h12.4v2.1h-5v13.9h-2.4v-13.9H232.2z"/>
		<path class="st10" d="M248.3,357.6c-0.4,0-0.8-0.1-1-0.4s-0.4-0.6-0.4-1c0-0.4,0.1-0.7,0.4-1s0.6-0.4,1-0.4s0.8,0.1,1,0.4
			s0.4,0.6,0.4,1c0,0.4-0.1,0.7-0.4,1S248.8,357.6,248.3,357.6z M247.2,371.5v-12h2.3v12H247.2z"/>
		<path class="st10" d="M252.6,371.5v-16h2.3v16H252.6z M254.8,367.4l0-2.9h0.4l4.8-5.1h2.8l-5.5,5.8h-0.4L254.8,367.4z
			 M260.2,371.5l-4.3-5.7l1.6-1.6l5.6,7.3H260.2z"/>
		<path class="st10" d="M270.5,359.5v1.9h-6.6v-1.9H270.5z M265.7,356.6h2.3v11.4c0,0.5,0.1,0.8,0.2,1c0.1,0.2,0.3,0.4,0.5,0.5
			c0.2,0.1,0.5,0.1,0.7,0.1c0.2,0,0.4,0,0.5,0c0.1,0,0.3,0,0.3-0.1l0.4,1.9c-0.1,0.1-0.3,0.1-0.6,0.2s-0.6,0.1-0.9,0.1
			c-0.6,0-1.2-0.1-1.7-0.3c-0.5-0.2-1-0.6-1.3-1.1c-0.3-0.5-0.5-1.1-0.5-1.8V356.6z"/>
		<path class="st10" d="M278,371.7c-1.1,0-2.1-0.3-2.9-0.8c-0.8-0.5-1.5-1.2-2-2.2c-0.5-0.9-0.7-2-0.7-3.3c0-1.2,0.2-2.3,0.7-3.3
			c0.5-0.9,1.1-1.7,2-2.2c0.8-0.5,1.8-0.8,2.9-0.8s2.1,0.3,2.9,0.8s1.5,1.2,2,2.2c0.5,0.9,0.7,2,0.7,3.3c0,1.2-0.2,2.3-0.7,3.3
			c-0.5,0.9-1.1,1.6-2,2.2S279.1,371.7,278,371.7z M278,369.7c0.7,0,1.3-0.2,1.8-0.6c0.5-0.4,0.8-0.9,1.1-1.5s0.3-1.3,0.3-2.1
			c0-0.8-0.1-1.5-0.3-2.1c-0.2-0.6-0.6-1.2-1.1-1.6s-1.1-0.6-1.8-0.6c-0.7,0-1.3,0.2-1.8,0.6c-0.5,0.4-0.8,0.9-1.1,1.6
			c-0.2,0.6-0.3,1.3-0.3,2.1c0,0.8,0.1,1.5,0.3,2.1c0.2,0.6,0.6,1.2,1.1,1.5C276.7,369.5,277.3,369.7,278,369.7z"/>
		<path class="st10" d="M286.2,371.5v-16h2.3v16H286.2z M288.3,367.4l0-2.9h0.4l4.8-5.1h2.8l-5.5,5.8h-0.4L288.3,367.4z
			 M293.8,371.5l-4.3-5.7l1.6-1.6l5.6,7.3H293.8z"/>
	</g>
	<g>
		<path class="st11" d="M237.6,384.2v1.2h-4.8v-1.2H237.6z M234.2,382h1.4v8.8c0,0.4,0.1,0.7,0.2,0.9s0.3,0.3,0.5,0.4
			c0.2,0.1,0.4,0.1,0.6,0.1c0.2,0,0.3,0,0.4,0c0.1,0,0.2,0,0.2,0l0.3,1.3c-0.1,0-0.2,0.1-0.4,0.1c-0.2,0-0.4,0.1-0.7,0.1
			c-0.4,0-0.8-0.1-1.2-0.3c-0.4-0.2-0.7-0.4-1-0.8c-0.3-0.4-0.4-0.8-0.4-1.3V382z"/>
		<path class="st11" d="M240.5,382.7c-0.3,0-0.5-0.1-0.7-0.3c-0.2-0.2-0.3-0.4-0.3-0.7s0.1-0.5,0.3-0.7c0.2-0.2,0.4-0.3,0.7-0.3
			s0.5,0.1,0.7,0.3c0.2,0.2,0.3,0.4,0.3,0.7s-0.1,0.5-0.3,0.7C241,382.6,240.8,382.7,240.5,382.7z M239.8,393.5v-9.3h1.4v9.3H239.8z
			"/>
		<path class="st11" d="M243.8,393.5v-12.4h1.4v12.4H243.8z M245.2,390.1l0-1.8h0.3l4.1-4.1h1.8l-4.3,4.4h-0.1L245.2,390.1z
			 M249.7,393.5l-3.6-4.6l1-1l4.4,5.6H249.7z"/>
		<path class="st11" d="M257.1,384.2v1.2h-4.8v-1.2H257.1z M253.7,382h1.4v8.8c0,0.4,0.1,0.7,0.2,0.9s0.3,0.3,0.5,0.4
			c0.2,0.1,0.4,0.1,0.6,0.1c0.2,0,0.3,0,0.4,0c0.1,0,0.2,0,0.2,0l0.3,1.3c-0.1,0-0.2,0.1-0.4,0.1c-0.2,0-0.4,0.1-0.7,0.1
			c-0.4,0-0.8-0.1-1.2-0.3c-0.4-0.2-0.7-0.4-1-0.8c-0.3-0.4-0.4-0.8-0.4-1.3V382z"/>
		<path class="st11" d="M262.9,393.7c-0.8,0-1.6-0.2-2.2-0.6s-1.1-1-1.5-1.7c-0.4-0.7-0.5-1.6-0.5-2.5c0-1,0.2-1.8,0.5-2.5
			c0.4-0.7,0.8-1.3,1.5-1.7s1.4-0.6,2.2-0.6c0.8,0,1.6,0.2,2.2,0.6s1.1,1,1.5,1.7c0.4,0.7,0.5,1.6,0.5,2.5c0,1-0.2,1.8-0.5,2.5
			c-0.4,0.7-0.8,1.3-1.5,1.7S263.8,393.7,262.9,393.7z M262.9,392.4c0.6,0,1.2-0.2,1.6-0.5s0.7-0.8,0.9-1.3s0.3-1.1,0.3-1.7
			c0-0.6-0.1-1.2-0.3-1.7c-0.2-0.5-0.5-1-0.9-1.3s-0.9-0.5-1.6-0.5c-0.6,0-1.2,0.2-1.6,0.5s-0.7,0.8-0.9,1.3
			c-0.2,0.5-0.3,1.1-0.3,1.7c0,0.6,0.1,1.2,0.3,1.7s0.5,1,0.9,1.3S262.3,392.4,262.9,392.4z"/>
		<path class="st11" d="M269.3,393.5v-12.4h1.4v12.4H269.3z M270.6,390.1l0-1.8h0.3l4.1-4.1h1.8l-4.3,4.4h-0.1L270.6,390.1z
			 M275.2,393.5l-3.6-4.6l1-1l4.4,5.6H275.2z"/>
		<path class="st11" d="M279.6,393.6c-0.3,0-0.6-0.1-0.8-0.3c-0.2-0.2-0.3-0.5-0.3-0.8s0.1-0.6,0.3-0.8c0.2-0.2,0.5-0.3,0.8-0.3
			c0.3,0,0.6,0.1,0.8,0.3c0.2,0.2,0.3,0.5,0.3,0.8c0,0.2,0,0.4-0.1,0.5c-0.1,0.2-0.2,0.3-0.4,0.4C280,393.5,279.8,393.6,279.6,393.6
			z"/>
		<path class="st11" d="M284.7,381.1v12.4h-1.4v-12.4H284.7z"/>
		<path class="st11" d="M288,382.7c-0.3,0-0.5-0.1-0.7-0.3c-0.2-0.2-0.3-0.4-0.3-0.7s0.1-0.5,0.3-0.7c0.2-0.2,0.4-0.3,0.7-0.3
			s0.5,0.1,0.7,0.3c0.2,0.2,0.3,0.4,0.3,0.7s-0.1,0.5-0.3,0.7C288.5,382.6,288.3,382.7,288,382.7z M287.3,393.5v-9.3h1.4v9.3H287.3z
			"/>
		<path class="st11" d="M292.7,387.9v5.6h-1.4v-9.3h1.4v1.4h0.1c0.2-0.5,0.5-0.8,1-1.1s1-0.4,1.7-0.4c0.6,0,1.2,0.1,1.6,0.4
			c0.5,0.3,0.8,0.6,1.1,1.2c0.3,0.5,0.4,1.2,0.4,2v5.9h-1.4v-5.8c0-0.7-0.2-1.3-0.6-1.7c-0.4-0.4-0.9-0.6-1.6-0.6
			c-0.5,0-0.9,0.1-1.2,0.3s-0.6,0.5-0.8,0.9C292.8,386.9,292.7,387.4,292.7,387.9z"/>
		<path class="st11" d="M301.2,393.5v-12.4h1.4v12.4H301.2z M302.6,390.1l0-1.8h0.3l4.1-4.1h1.8l-4.3,4.4h-0.1L302.6,390.1z
			 M307.1,393.5l-3.6-4.6l1-1l4.4,5.6H307.1z"/>
		<path class="st11" d="M313.2,393.7c-0.6,0-1.1-0.1-1.6-0.3c-0.5-0.2-0.9-0.5-1.1-1c-0.3-0.4-0.4-0.9-0.4-1.5c0-0.5,0.1-1,0.3-1.3
			c0.2-0.3,0.5-0.6,0.8-0.8c0.3-0.2,0.7-0.3,1.2-0.4s0.9-0.2,1.3-0.2c0.6-0.1,1-0.1,1.4-0.2c0.4,0,0.6-0.1,0.8-0.2
			c0.2-0.1,0.2-0.3,0.2-0.5v0c0-0.6-0.2-1.1-0.5-1.4s-0.8-0.5-1.5-0.5c-0.7,0-1.2,0.1-1.6,0.4c-0.4,0.3-0.7,0.6-0.8,1l-1.4-0.5
			c0.2-0.6,0.6-1,1-1.3c0.4-0.3,0.8-0.5,1.3-0.7c0.5-0.1,1-0.2,1.4-0.2c0.3,0,0.6,0,1,0.1s0.8,0.2,1.1,0.4s0.7,0.5,0.9,1
			c0.2,0.4,0.4,1,0.4,1.8v6.1h-1.4v-1.3H316c-0.1,0.2-0.3,0.4-0.5,0.6s-0.5,0.4-0.9,0.6C314.2,393.6,313.8,393.7,313.2,393.7z
			 M313.4,392.4c0.6,0,1-0.1,1.4-0.3c0.4-0.2,0.7-0.5,0.9-0.9c0.2-0.4,0.3-0.7,0.3-1.1v-1.3c-0.1,0.1-0.2,0.1-0.4,0.2
			c-0.2,0.1-0.4,0.1-0.7,0.2c-0.3,0-0.5,0.1-0.8,0.1c-0.2,0-0.4,0.1-0.6,0.1c-0.4,0-0.7,0.1-1,0.2c-0.3,0.1-0.6,0.3-0.8,0.5
			c-0.2,0.2-0.3,0.5-0.3,0.9c0,0.5,0.2,0.9,0.6,1.1C312.4,392.3,312.9,392.4,313.4,392.4z"/>
		<path class="st11" d="M321.1,393.6c-0.3,0-0.6-0.1-0.8-0.3c-0.2-0.2-0.3-0.5-0.3-0.8s0.1-0.6,0.3-0.8c0.2-0.2,0.5-0.3,0.8-0.3
			c0.3,0,0.6,0.1,0.8,0.3c0.2,0.2,0.3,0.5,0.3,0.8c0,0.2,0,0.4-0.1,0.5s-0.2,0.3-0.4,0.4S321.3,393.6,321.1,393.6z"/>
		<path class="st11" d="M327.5,393.7c-0.6,0-1.1-0.1-1.6-0.3c-0.5-0.2-0.9-0.5-1.1-1c-0.3-0.4-0.4-0.9-0.4-1.5c0-0.5,0.1-1,0.3-1.3
			c0.2-0.3,0.5-0.6,0.8-0.8c0.3-0.2,0.7-0.3,1.2-0.4s0.9-0.2,1.3-0.2c0.6-0.1,1-0.1,1.4-0.2c0.4,0,0.6-0.1,0.8-0.2
			c0.2-0.1,0.2-0.3,0.2-0.5v0c0-0.6-0.2-1.1-0.5-1.4s-0.8-0.5-1.5-0.5c-0.7,0-1.2,0.1-1.6,0.4c-0.4,0.3-0.7,0.6-0.8,1l-1.4-0.5
			c0.2-0.6,0.6-1,1-1.3c0.4-0.3,0.8-0.5,1.3-0.7c0.5-0.1,1-0.2,1.4-0.2c0.3,0,0.6,0,1,0.1s0.8,0.2,1.1,0.4s0.7,0.5,0.9,1
			c0.2,0.4,0.4,1,0.4,1.8v6.1h-1.4v-1.3h-0.1c-0.1,0.2-0.3,0.4-0.5,0.6s-0.5,0.4-0.9,0.6C328.5,393.6,328,393.7,327.5,393.7z
			 M327.7,392.4c0.6,0,1-0.1,1.4-0.3c0.4-0.2,0.7-0.5,0.9-0.9c0.2-0.4,0.3-0.7,0.3-1.1v-1.3c-0.1,0.1-0.2,0.1-0.4,0.2
			c-0.2,0.1-0.4,0.1-0.7,0.2c-0.3,0-0.5,0.1-0.8,0.1c-0.2,0-0.4,0.1-0.6,0.1c-0.4,0-0.7,0.1-1,0.2c-0.3,0.1-0.6,0.3-0.8,0.5
			c-0.2,0.2-0.3,0.5-0.3,0.9c0,0.5,0.2,0.9,0.6,1.1C326.7,392.3,327.1,392.4,327.7,392.4z"/>
		<path class="st11" d="M335.1,382.7c-0.3,0-0.5-0.1-0.7-0.3c-0.2-0.2-0.3-0.4-0.3-0.7s0.1-0.5,0.3-0.7c0.2-0.2,0.4-0.3,0.7-0.3
			s0.5,0.1,0.7,0.3c0.2,0.2,0.3,0.4,0.3,0.7s-0.1,0.5-0.3,0.7C335.6,382.6,335.4,382.7,335.1,382.7z M334.4,393.5v-9.3h1.4v9.3
			H334.4z"/>
	</g>
</g>
<g>
	<g>
		<path class="st10" d="M248.9,195.9v24.4h-3.7v-24.4H248.9z"/>
		<path class="st10" d="M257.5,209.4v10.9H254V202h3.4v3h0.2c0.4-1,1.1-1.7,2-2.3c0.9-0.6,2-0.9,3.4-0.9c1.2,0,2.3,0.3,3.3,0.8
			s1.7,1.3,2.2,2.3c0.5,1,0.8,2.3,0.8,3.8v11.6h-3.6v-11.2c0-1.3-0.3-2.4-1-3.1c-0.7-0.8-1.6-1.1-2.8-1.1c-0.8,0-1.6,0.2-2.2,0.5
			c-0.6,0.4-1.1,0.9-1.5,1.6C257.7,207.6,257.5,208.5,257.5,209.4z"/>
		<path class="st10" d="M287.7,206.5l-3.2,0.6c-0.1-0.4-0.3-0.8-0.6-1.2c-0.3-0.4-0.7-0.7-1.2-0.9c-0.5-0.2-1.1-0.4-1.8-0.4
			c-1,0-1.9,0.2-2.5,0.7c-0.7,0.4-1,1-1,1.7c0,0.6,0.2,1.1,0.7,1.5c0.5,0.4,1.2,0.7,2.2,0.9l2.9,0.7c1.7,0.4,2.9,1,3.8,1.8
			c0.8,0.8,1.2,1.9,1.2,3.2c0,1.1-0.3,2.1-0.9,2.9c-0.6,0.9-1.5,1.5-2.6,2c-1.1,0.5-2.4,0.7-3.9,0.7c-2.1,0-3.7-0.4-5-1.3
			s-2.1-2.1-2.4-3.8l3.4-0.5c0.2,0.9,0.7,1.6,1.3,2c0.7,0.5,1.5,0.7,2.6,0.7c1.2,0,2.1-0.2,2.8-0.7c0.7-0.5,1-1.1,1-1.8
			c0-0.6-0.2-1.1-0.6-1.4c-0.4-0.4-1.1-0.7-2-0.9l-3.1-0.7c-1.7-0.4-3-1-3.8-1.9s-1.2-1.9-1.2-3.2c0-1.1,0.3-2,0.9-2.8
			c0.6-0.8,1.4-1.4,2.5-1.9c1.1-0.5,2.3-0.7,3.7-0.7c2,0,3.5,0.4,4.7,1.3C286.6,203.9,287.4,205,287.7,206.5z"/>
		<path class="st10" d="M300.6,202v2.9h-10V202H300.6z M293.2,197.6h3.6v17.3c0,0.7,0.1,1.2,0.3,1.6c0.2,0.3,0.5,0.6,0.8,0.7
			c0.3,0.1,0.7,0.2,1.1,0.2c0.3,0,0.5,0,0.8-0.1c0.2,0,0.4-0.1,0.5-0.1l0.6,2.9c-0.2,0.1-0.5,0.2-0.9,0.2c-0.4,0.1-0.9,0.1-1.4,0.1
			c-0.9,0-1.8-0.2-2.6-0.5s-1.5-0.9-2-1.6c-0.5-0.7-0.8-1.6-0.8-2.8V197.6z"/>
		<path class="st10" d="M309.8,220.7c-1.2,0-2.2-0.2-3.1-0.6c-0.9-0.4-1.7-1.1-2.2-1.9c-0.5-0.8-0.8-1.8-0.8-3c0-1,0.2-1.9,0.6-2.6
			s0.9-1.2,1.6-1.6c0.7-0.4,1.4-0.7,2.3-0.9c0.8-0.2,1.7-0.4,2.6-0.5c1.1-0.1,2-0.2,2.7-0.3c0.7-0.1,1.2-0.2,1.5-0.4
			s0.5-0.5,0.5-0.9v-0.1c0-1-0.3-1.8-0.9-2.4s-1.5-0.9-2.6-0.9c-1.2,0-2.1,0.3-2.8,0.8c-0.7,0.5-1.2,1.1-1.4,1.8l-3.4-0.8
			c0.4-1.1,1-2,1.7-2.7c0.8-0.7,1.7-1.2,2.7-1.5c1-0.3,2.1-0.5,3.2-0.5c0.7,0,1.5,0.1,2.3,0.3c0.8,0.2,1.6,0.5,2.3,0.9
			c0.7,0.5,1.3,1.1,1.8,1.9c0.5,0.8,0.7,1.9,0.7,3.3v12.2h-3.5v-2.5h-0.1c-0.2,0.5-0.6,0.9-1,1.4s-1.1,0.8-1.8,1.1
			S310.8,220.7,309.8,220.7z M310.6,217.9c1,0,1.8-0.2,2.5-0.6c0.7-0.4,1.2-0.9,1.6-1.5c0.4-0.6,0.6-1.3,0.6-2v-2.4
			c-0.1,0.1-0.4,0.2-0.7,0.4c-0.4,0.1-0.8,0.2-1.2,0.3c-0.5,0.1-0.9,0.1-1.3,0.2c-0.4,0.1-0.8,0.1-1.1,0.1c-0.7,0.1-1.3,0.2-1.9,0.4
			c-0.6,0.2-1,0.5-1.4,0.9c-0.3,0.4-0.5,0.9-0.5,1.5c0,0.9,0.3,1.5,1,2C308.8,217.6,309.6,217.9,310.6,217.9z"/>
		<path class="st10" d="M331.3,227.5c-1.5,0-2.7-0.2-3.8-0.6c-1-0.4-1.9-0.9-2.6-1.5s-1.2-1.3-1.5-2l3.1-1.3
			c0.2,0.3,0.5,0.7,0.9,1.1c0.4,0.4,0.9,0.7,1.5,1s1.4,0.4,2.4,0.4c1.4,0,2.5-0.3,3.4-1c0.9-0.7,1.3-1.7,1.3-3.1V217h-0.2
			c-0.2,0.4-0.5,0.8-0.9,1.3c-0.4,0.5-1,0.9-1.7,1.2c-0.7,0.4-1.6,0.5-2.7,0.5c-1.4,0-2.7-0.3-3.9-1c-1.2-0.7-2.1-1.7-2.7-3
			c-0.7-1.3-1-3-1-4.9c0-1.9,0.3-3.6,1-5c0.7-1.4,1.6-2.5,2.7-3.2c1.2-0.7,2.5-1.1,3.9-1.1c1.1,0,2.1,0.2,2.8,0.6
			c0.7,0.4,1.2,0.8,1.6,1.3c0.4,0.5,0.7,0.9,0.9,1.3h0.3v-3h3.5v18.7c0,1.6-0.4,2.8-1.1,3.8c-0.7,1-1.7,1.8-3,2.2
			C334.2,227.3,332.8,227.5,331.3,227.5z M331.2,217.1c1,0,1.9-0.2,2.6-0.7c0.7-0.5,1.3-1.2,1.6-2.1c0.4-0.9,0.6-2,0.6-3.2
			c0-1.2-0.2-2.3-0.5-3.3c-0.4-0.9-0.9-1.7-1.6-2.2c-0.7-0.5-1.6-0.8-2.6-0.8c-1.1,0-2,0.3-2.7,0.8c-0.7,0.6-1.3,1.3-1.6,2.2
			c-0.4,0.9-0.5,2-0.5,3.2c0,1.2,0.2,2.3,0.5,3.2c0.4,0.9,0.9,1.6,1.6,2.1C329.3,216.8,330.2,217.1,331.2,217.1z"/>
		<path class="st10" d="M344.3,220.3V202h3.4v2.9h0.2c0.3-1,0.9-1.8,1.8-2.3s1.8-0.9,2.9-0.9c0.2,0,0.5,0,0.8,0c0.3,0,0.5,0,0.7,0.1
			v3.4c-0.1,0-0.4-0.1-0.8-0.1c-0.4-0.1-0.7-0.1-1.1-0.1c-0.8,0-1.6,0.2-2.2,0.5c-0.7,0.4-1.2,0.8-1.6,1.5c-0.4,0.6-0.6,1.3-0.6,2.1
			v11.2H344.3z"/>
		<path class="st10" d="M362.4,220.7c-1.2,0-2.2-0.2-3.1-0.6c-0.9-0.4-1.7-1.1-2.2-1.9c-0.5-0.8-0.8-1.8-0.8-3c0-1,0.2-1.9,0.6-2.6
			s0.9-1.2,1.6-1.6c0.7-0.4,1.4-0.7,2.3-0.9c0.8-0.2,1.7-0.4,2.6-0.5c1.1-0.1,2-0.2,2.7-0.3c0.7-0.1,1.2-0.2,1.5-0.4
			s0.5-0.5,0.5-0.9v-0.1c0-1-0.3-1.8-0.9-2.4s-1.5-0.9-2.6-0.9c-1.2,0-2.1,0.3-2.8,0.8c-0.7,0.5-1.2,1.1-1.4,1.8l-3.4-0.8
			c0.4-1.1,1-2,1.7-2.7c0.8-0.7,1.7-1.2,2.7-1.5c1-0.3,2.1-0.5,3.2-0.5c0.7,0,1.5,0.1,2.3,0.3c0.8,0.2,1.6,0.5,2.3,0.9
			c0.7,0.5,1.3,1.1,1.8,1.9c0.5,0.8,0.7,1.9,0.7,3.3v12.2h-3.5v-2.5h-0.1c-0.2,0.5-0.6,0.9-1,1.4s-1.1,0.8-1.8,1.1
			S363.4,220.7,362.4,220.7z M363.2,217.9c1,0,1.8-0.2,2.5-0.6c0.7-0.4,1.2-0.9,1.6-1.5c0.4-0.6,0.6-1.3,0.6-2v-2.4
			c-0.1,0.1-0.4,0.2-0.7,0.4c-0.4,0.1-0.8,0.2-1.2,0.3c-0.5,0.1-0.9,0.1-1.3,0.2c-0.4,0.1-0.8,0.1-1.1,0.1c-0.7,0.1-1.3,0.2-1.9,0.4
			c-0.6,0.2-1,0.5-1.4,0.9c-0.3,0.4-0.5,0.9-0.5,1.5c0,0.9,0.3,1.5,1,2C361.3,217.6,362.2,217.9,363.2,217.9z"/>
		<path class="st10" d="M376.2,220.3V202h3.4v3h0.2c0.4-1,1-1.8,1.9-2.4c0.9-0.6,1.9-0.9,3.1-0.9c1.2,0,2.3,0.3,3.1,0.9
			c0.8,0.6,1.4,1.4,1.8,2.4h0.2c0.4-1,1.1-1.8,2.1-2.3c1-0.6,2.1-0.9,3.4-0.9c1.7,0,3,0.5,4.1,1.6c1.1,1,1.6,2.6,1.6,4.7v12.3h-3.6
			v-11.9c0-1.2-0.3-2.1-1-2.7c-0.7-0.6-1.5-0.8-2.4-0.8c-1.2,0-2.1,0.4-2.7,1.1c-0.6,0.7-1,1.6-1,2.7v11.7h-3.6v-12.2
			c0-1-0.3-1.8-0.9-2.4s-1.4-0.9-2.4-0.9c-0.7,0-1.3,0.2-1.9,0.5c-0.6,0.4-1,0.8-1.4,1.5s-0.5,1.4-0.5,2.2v11.3H376.2z"/>
	</g>
	<g>
		<path class="st11" d="M247.2,237.4c-0.4,0-0.8-0.1-1.1-0.4c-0.3-0.3-0.5-0.6-0.5-1s0.2-0.8,0.5-1c0.3-0.3,0.7-0.4,1.1-0.4
			s0.8,0.1,1.1,0.4c0.3,0.3,0.5,0.6,0.5,1s-0.2,0.8-0.5,1C248,237.3,247.6,237.4,247.2,237.4z M246.1,253.9v-14.2h2.2v14.2H246.1z"
			/>
		<path class="st11" d="M254.4,245.4v8.5h-2.2v-14.2h2.1v2.2h0.2c0.3-0.7,0.8-1.3,1.5-1.7c0.7-0.4,1.5-0.7,2.6-0.7
			c1,0,1.8,0.2,2.5,0.6c0.7,0.4,1.3,1,1.7,1.8s0.6,1.8,0.6,3v9h-2.2v-8.8c0-1.1-0.3-2-0.9-2.6s-1.4-0.9-2.4-0.9
			c-0.7,0-1.3,0.2-1.9,0.5s-1,0.7-1.3,1.3C254.6,243.9,254.4,244.6,254.4,245.4z"/>
		<path class="st11" d="M277.4,243l-2,0.6c-0.1-0.3-0.3-0.6-0.5-1c-0.2-0.3-0.6-0.6-1-0.8c-0.4-0.2-0.9-0.3-1.6-0.3
			c-0.9,0-1.6,0.2-2.2,0.6c-0.6,0.4-0.9,0.9-0.9,1.5c0,0.5,0.2,1,0.6,1.3s1,0.6,1.8,0.8l2.1,0.5c1.3,0.3,2.2,0.8,2.8,1.4
			c0.6,0.6,0.9,1.4,0.9,2.4c0,0.8-0.2,1.5-0.7,2.2s-1.1,1.1-1.9,1.5c-0.8,0.4-1.8,0.6-2.9,0.6c-1.4,0-2.6-0.3-3.6-0.9
			c-0.9-0.6-1.5-1.5-1.8-2.7l2.1-0.5c0.2,0.8,0.6,1.3,1.1,1.7c0.5,0.4,1.3,0.6,2.2,0.6c1,0,1.8-0.2,2.4-0.7c0.6-0.4,0.9-1,0.9-1.6
			c0-0.5-0.2-0.9-0.5-1.2c-0.3-0.3-0.9-0.6-1.6-0.8l-2.4-0.6c-1.3-0.3-2.2-0.8-2.9-1.4c-0.6-0.6-0.9-1.5-0.9-2.4
			c0-0.8,0.2-1.5,0.7-2.1c0.5-0.6,1.1-1.1,1.9-1.4c0.8-0.3,1.7-0.5,2.7-0.5c1.4,0,2.5,0.3,3.3,0.9C276.5,241.1,277.1,242,277.4,243z
			"/>
		<path class="st11" d="M287.1,239.8v1.8h-7.3v-1.8H287.1z M281.9,236.4h2.2v13.5c0,0.6,0.1,1.1,0.3,1.4c0.2,0.3,0.4,0.5,0.7,0.6
			c0.3,0.1,0.6,0.2,0.9,0.2c0.2,0,0.4,0,0.6,0c0.2,0,0.3-0.1,0.4-0.1l0.4,2c-0.1,0.1-0.4,0.1-0.6,0.2c-0.3,0.1-0.6,0.1-1,0.1
			c-0.6,0-1.2-0.1-1.8-0.4c-0.6-0.3-1.1-0.7-1.5-1.2c-0.4-0.5-0.6-1.2-0.6-2V236.4z"/>
		<path class="st11" d="M294.6,254.3c-0.9,0-1.7-0.2-2.4-0.5c-0.7-0.3-1.3-0.8-1.7-1.5c-0.4-0.6-0.6-1.4-0.6-2.4
			c0-0.8,0.2-1.5,0.5-2s0.7-0.9,1.3-1.2c0.5-0.3,1.1-0.5,1.8-0.6c0.6-0.1,1.3-0.3,2-0.3c0.9-0.1,1.6-0.2,2.1-0.3
			c0.5-0.1,0.9-0.2,1.2-0.3c0.2-0.1,0.4-0.4,0.4-0.7v-0.1c0-0.9-0.2-1.6-0.7-2.1c-0.5-0.5-1.2-0.8-2.2-0.8c-1,0-1.9,0.2-2.4,0.7
			c-0.6,0.5-1,0.9-1.2,1.5l-2.1-0.7c0.4-0.9,0.9-1.5,1.5-2c0.6-0.5,1.3-0.8,2-1c0.7-0.2,1.5-0.3,2.2-0.3c0.5,0,1,0.1,1.6,0.2
			c0.6,0.1,1.2,0.3,1.7,0.7s1,0.8,1.4,1.5c0.4,0.7,0.6,1.6,0.6,2.7v9.3h-2.2V252h-0.1c-0.1,0.3-0.4,0.6-0.7,1
			c-0.3,0.4-0.8,0.6-1.4,0.9C296.1,254.1,295.4,254.3,294.6,254.3z M294.9,252.3c0.9,0,1.6-0.2,2.2-0.5s1-0.8,1.3-1.3
			c0.3-0.5,0.5-1.1,0.5-1.7v-2c-0.1,0.1-0.3,0.2-0.6,0.3c-0.3,0.1-0.7,0.2-1.1,0.2s-0.8,0.1-1.2,0.2s-0.7,0.1-0.9,0.1
			c-0.6,0.1-1.1,0.2-1.6,0.4c-0.5,0.2-0.9,0.4-1.2,0.7c-0.3,0.3-0.4,0.8-0.4,1.3c0,0.8,0.3,1.3,0.8,1.7
			C293.3,252.1,294,252.3,294.9,252.3z"/>
		<path class="st11" d="M310.8,259.5c-1,0-2-0.1-2.7-0.4c-0.8-0.3-1.4-0.6-1.9-1.1c-0.5-0.4-0.9-0.9-1.2-1.4l1.7-1.2
			c0.2,0.3,0.4,0.6,0.7,0.9s0.7,0.6,1.2,0.9c0.5,0.2,1.2,0.4,2.1,0.4c1.1,0,2.1-0.3,2.8-0.8s1.1-1.4,1.1-2.6v-2.9h-0.2
			c-0.2,0.3-0.4,0.6-0.7,1c-0.3,0.4-0.7,0.7-1.3,1c-0.5,0.3-1.3,0.4-2.2,0.4c-1.1,0-2.2-0.3-3.1-0.8c-0.9-0.5-1.6-1.3-2.1-2.4
			c-0.5-1-0.8-2.3-0.8-3.8c0-1.4,0.3-2.7,0.8-3.8c0.5-1.1,1.2-1.9,2.1-2.5s2-0.9,3.2-0.9c0.9,0,1.7,0.2,2.2,0.5c0.5,0.3,1,0.6,1.3,1
			c0.3,0.4,0.5,0.7,0.7,0.9h0.2v-2.2h2.1v14.6c0,1.2-0.3,2.2-0.8,3s-1.3,1.3-2.2,1.7C312.9,259.4,311.9,259.5,310.8,259.5z
			 M310.7,251.8c0.9,0,1.6-0.2,2.2-0.6c0.6-0.4,1.1-1,1.4-1.7c0.3-0.7,0.5-1.6,0.5-2.7c0-1-0.2-1.9-0.5-2.7
			c-0.3-0.8-0.8-1.4-1.4-1.8c-0.6-0.4-1.3-0.7-2.2-0.7c-0.9,0-1.7,0.2-2.3,0.7c-0.6,0.5-1.1,1.1-1.4,1.9s-0.5,1.7-0.5,2.6
			c0,1,0.2,1.9,0.5,2.6c0.3,0.8,0.8,1.3,1.4,1.8C309,251.6,309.8,251.8,310.7,251.8z"/>
		<path class="st11" d="M320.9,253.9v-14.2h2.1v2.1h0.1c0.3-0.7,0.7-1.3,1.4-1.7c0.7-0.4,1.4-0.7,2.3-0.7c0.2,0,0.4,0,0.6,0
			c0.2,0,0.4,0,0.5,0v2.2c-0.1,0-0.2,0-0.5-0.1s-0.5-0.1-0.8-0.1c-0.7,0-1.3,0.1-1.8,0.4c-0.5,0.3-1,0.7-1.3,1.2
			c-0.3,0.5-0.5,1.1-0.5,1.7v9H320.9z"/>
		<path class="st11" d="M334.7,254.3c-0.9,0-1.7-0.2-2.4-0.5c-0.7-0.3-1.3-0.8-1.7-1.5c-0.4-0.6-0.6-1.4-0.6-2.4
			c0-0.8,0.2-1.5,0.5-2s0.7-0.9,1.3-1.2c0.5-0.3,1.1-0.5,1.8-0.6c0.6-0.1,1.3-0.3,2-0.3c0.9-0.1,1.6-0.2,2.1-0.3
			c0.5-0.1,0.9-0.2,1.2-0.3c0.2-0.1,0.4-0.4,0.4-0.7v-0.1c0-0.9-0.2-1.6-0.7-2.1c-0.5-0.5-1.2-0.8-2.2-0.8c-1,0-1.9,0.2-2.4,0.7
			c-0.6,0.5-1,0.9-1.2,1.5l-2.1-0.7c0.4-0.9,0.9-1.5,1.5-2c0.6-0.5,1.3-0.8,2-1c0.7-0.2,1.5-0.3,2.2-0.3c0.5,0,1,0.1,1.6,0.2
			c0.6,0.1,1.2,0.3,1.7,0.7s1,0.8,1.4,1.5c0.4,0.7,0.6,1.6,0.6,2.7v9.3H339V252h-0.1c-0.1,0.3-0.4,0.6-0.7,1
			c-0.3,0.4-0.8,0.6-1.4,0.9C336.2,254.1,335.5,254.3,334.7,254.3z M335,252.3c0.9,0,1.6-0.2,2.2-0.5s1-0.8,1.3-1.3
			c0.3-0.5,0.5-1.1,0.5-1.7v-2c-0.1,0.1-0.3,0.2-0.6,0.3c-0.3,0.1-0.7,0.2-1.1,0.2s-0.8,0.1-1.2,0.2s-0.7,0.1-0.9,0.1
			c-0.6,0.1-1.1,0.2-1.6,0.4c-0.5,0.2-0.9,0.4-1.2,0.7c-0.3,0.3-0.4,0.8-0.4,1.3c0,0.8,0.3,1.3,0.8,1.7
			C333.4,252.1,334.1,252.3,335,252.3z"/>
		<path class="st11" d="M345.1,253.9v-14.2h2.1v2.2h0.2c0.3-0.8,0.8-1.3,1.4-1.8c0.7-0.4,1.4-0.6,2.4-0.6c0.9,0,1.7,0.2,2.3,0.6
			c0.6,0.4,1.1,1,1.5,1.8h0.1c0.4-0.7,0.9-1.3,1.6-1.7c0.7-0.4,1.6-0.6,2.6-0.6c1.3,0,2.3,0.4,3.1,1.2c0.8,0.8,1.2,2,1.2,3.7v9.5
			h-2.2v-9.5c0-1-0.3-1.8-0.9-2.2s-1.2-0.7-2-0.7c-1,0-1.8,0.3-2.3,0.9s-0.8,1.4-0.8,2.3v9.2h-2.2v-9.7c0-0.8-0.3-1.5-0.8-1.9
			c-0.5-0.5-1.2-0.7-2-0.7c-0.6,0-1.1,0.2-1.6,0.5s-0.9,0.7-1.2,1.2s-0.4,1.1-0.4,1.8v8.8H345.1z"/>
		<path class="st11" d="M369.3,254.1c-0.5,0-0.8-0.2-1.2-0.5c-0.3-0.3-0.5-0.7-0.5-1.2c0-0.5,0.2-0.8,0.5-1.2
			c0.3-0.3,0.7-0.5,1.2-0.5c0.5,0,0.8,0.2,1.2,0.5c0.3,0.3,0.5,0.7,0.5,1.2c0,0.3-0.1,0.6-0.2,0.8c-0.2,0.3-0.4,0.5-0.6,0.6
			C369.9,254,369.6,254.1,369.3,254.1z"/>
		<path class="st11" d="M377,235.1v18.9h-2.2v-18.9H377z"/>
		<path class="st11" d="M382.1,237.4c-0.4,0-0.8-0.1-1.1-0.4c-0.3-0.3-0.5-0.6-0.5-1s0.2-0.8,0.5-1c0.3-0.3,0.7-0.4,1.1-0.4
			s0.8,0.1,1.1,0.4c0.3,0.3,0.5,0.6,0.5,1s-0.2,0.8-0.5,1C382.9,237.3,382.5,237.4,382.1,237.4z M381,253.9v-14.2h2.2v14.2H381z"/>
		<path class="st11" d="M389.3,245.4v8.5h-2.2v-14.2h2.1v2.2h0.2c0.3-0.7,0.8-1.3,1.5-1.7s1.5-0.7,2.6-0.7c1,0,1.8,0.2,2.5,0.6
			c0.7,0.4,1.3,1,1.7,1.8c0.4,0.8,0.6,1.8,0.6,3v9h-2.2v-8.8c0-1.1-0.3-2-0.9-2.6c-0.6-0.6-1.4-0.9-2.4-0.9c-0.7,0-1.3,0.2-1.9,0.5
			c-0.5,0.3-1,0.7-1.3,1.3C389.5,243.9,389.3,244.6,389.3,245.4z"/>
		<path class="st11" d="M402.3,253.9v-18.9h2.2v18.9H402.3z M404.4,248.8l0-2.7h0.4l6.2-6.3h2.7l-6.6,6.7h-0.2L404.4,248.8z
			 M411.3,253.9l-5.5-7l1.5-1.5l6.7,8.5H411.3z"/>
		<path class="st11" d="M420.6,254.3c-0.9,0-1.7-0.2-2.4-0.5c-0.7-0.3-1.3-0.8-1.7-1.5c-0.4-0.6-0.6-1.4-0.6-2.4
			c0-0.8,0.2-1.5,0.5-2s0.7-0.9,1.3-1.2c0.5-0.3,1.1-0.5,1.8-0.6c0.6-0.1,1.3-0.3,2-0.3c0.9-0.1,1.6-0.2,2.1-0.3
			c0.5-0.1,0.9-0.2,1.2-0.3c0.2-0.1,0.4-0.4,0.4-0.7v-0.1c0-0.9-0.2-1.6-0.7-2.1c-0.5-0.5-1.2-0.8-2.2-0.8c-1,0-1.9,0.2-2.4,0.7
			c-0.6,0.5-1,0.9-1.2,1.5l-2.1-0.7c0.4-0.9,0.9-1.5,1.5-2c0.6-0.5,1.3-0.8,2-1c0.7-0.2,1.5-0.3,2.2-0.3c0.5,0,1,0.1,1.6,0.2
			c0.6,0.1,1.2,0.3,1.7,0.7s1,0.8,1.4,1.5c0.4,0.7,0.6,1.6,0.6,2.7v9.3h-2.2V252h-0.1c-0.1,0.3-0.4,0.6-0.7,1
			c-0.3,0.4-0.8,0.6-1.4,0.9C422.1,254.1,421.4,254.3,420.6,254.3z M420.9,252.3c0.9,0,1.6-0.2,2.2-0.5s1-0.8,1.3-1.3
			c0.3-0.5,0.5-1.1,0.5-1.7v-2c-0.1,0.1-0.3,0.2-0.6,0.3c-0.3,0.1-0.7,0.2-1.1,0.2s-0.8,0.1-1.2,0.2s-0.7,0.1-0.9,0.1
			c-0.6,0.1-1.1,0.2-1.6,0.4c-0.5,0.2-0.9,0.4-1.2,0.7c-0.3,0.3-0.4,0.8-0.4,1.3c0,0.8,0.3,1.3,0.8,1.7
			C419.4,252.1,420.1,252.3,420.9,252.3z"/>
		<path class="st11" d="M432.7,254.1c-0.5,0-0.8-0.2-1.2-0.5c-0.3-0.3-0.5-0.7-0.5-1.2c0-0.5,0.2-0.8,0.5-1.2
			c0.3-0.3,0.7-0.5,1.2-0.5c0.5,0,0.8,0.2,1.2,0.5c0.3,0.3,0.5,0.7,0.5,1.2c0,0.3-0.1,0.6-0.2,0.8c-0.2,0.3-0.4,0.5-0.6,0.6
			C433.3,254,433,254.1,432.7,254.1z"/>
		<path class="st11" d="M442.4,254.3c-0.9,0-1.7-0.2-2.4-0.5c-0.7-0.3-1.3-0.8-1.7-1.5c-0.4-0.6-0.6-1.4-0.6-2.4
			c0-0.8,0.2-1.5,0.5-2s0.7-0.9,1.3-1.2c0.5-0.3,1.1-0.5,1.8-0.6c0.6-0.1,1.3-0.3,2-0.3c0.9-0.1,1.6-0.2,2.1-0.3
			c0.5-0.1,0.9-0.2,1.2-0.3c0.2-0.1,0.4-0.4,0.4-0.7v-0.1c0-0.9-0.2-1.6-0.7-2.1c-0.5-0.5-1.2-0.8-2.2-0.8c-1,0-1.9,0.2-2.4,0.7
			c-0.6,0.5-1,0.9-1.2,1.5l-2.1-0.7c0.4-0.9,0.9-1.5,1.5-2c0.6-0.5,1.3-0.8,2-1c0.7-0.2,1.5-0.3,2.2-0.3c0.5,0,1,0.1,1.6,0.2
			c0.6,0.1,1.2,0.3,1.7,0.7s1,0.8,1.4,1.5c0.4,0.7,0.6,1.6,0.6,2.7v9.3h-2.2V252h-0.1c-0.1,0.3-0.4,0.6-0.7,1
			c-0.3,0.4-0.8,0.6-1.4,0.9C443.9,254.1,443.2,254.3,442.4,254.3z M442.7,252.3c0.9,0,1.6-0.2,2.2-0.5s1-0.8,1.3-1.3
			c0.3-0.5,0.5-1.1,0.5-1.7v-2c-0.1,0.1-0.3,0.2-0.6,0.3c-0.3,0.1-0.7,0.2-1.1,0.2s-0.8,0.1-1.2,0.2s-0.7,0.1-0.9,0.1
			c-0.6,0.1-1.1,0.2-1.6,0.4c-0.5,0.2-0.9,0.4-1.2,0.7c-0.3,0.3-0.4,0.8-0.4,1.3c0,0.8,0.3,1.3,0.8,1.7
			C441.1,252.1,441.9,252.3,442.7,252.3z"/>
		<path class="st11" d="M454,237.4c-0.4,0-0.8-0.1-1.1-0.4c-0.3-0.3-0.5-0.6-0.5-1s0.2-0.8,0.5-1c0.3-0.3,0.7-0.4,1.1-0.4
			s0.8,0.1,1.1,0.4c0.3,0.3,0.5,0.6,0.5,1s-0.2,0.8-0.5,1C454.8,237.3,454.4,237.4,454,237.4z M452.9,253.9v-14.2h2.2v14.2H452.9z"
			/>
	</g>
</g>
</svg>
